<?xml version="1.0" standalone="no"?>
<!DOCTYPE svg PUBLIC "-//W3C//DTD SVG 20010904//EN"
 "http://www.w3.org/TR/2001/REC-SVG-20010904/DTD/svg10.dtd">
<svg version="1.0" xmlns="http://www.w3.org/2000/svg"
 width="2560.000000pt" height="2560.000000pt" viewBox="0 0 2560.000000 2560.000000"
 preserveAspectRatio="xMidYMid meet">
<metadata>
Created by potrace 1.14, written by Peter Selinger 2001-2017
</metadata>
<g transform="translate(0.000000,2560.000000) scale(0.100000,-0.100000)"
fill="#000000" stroke="none">
<path d="M15660 21150 c-9 -6 -10 -10 -3 -10 6 0 15 5 18 10 8 12 4 12 -15 0z"/>
<path d="M16435 21091 c-93 -19 -311 -115 -323 -143 -2 -5 -7 -8 -11 -8 -20 0
-261 -236 -261 -255 0 -3 -8 -15 -18 -26 -11 -10 -25 -32 -33 -47 -8 -15 -17
-29 -20 -32 -4 -3 -17 -25 -29 -50 -13 -25 -33 -54 -45 -66 -12 -11 -25 -27
-28 -35 -4 -9 -6 -10 -6 -1 -1 7 -14 12 -31 12 -17 0 -39 9 -50 20 -12 12 -33
20 -52 20 -21 0 -44 9 -62 25 -16 13 -37 27 -47 30 -11 4 -19 11 -19 16 0 5
-13 9 -30 9 -16 0 -30 5 -30 10 0 15 -58 12 -63 -2 -2 -8 -15 0 -33 21 -33 39
-37 56 -12 56 24 0 33 12 20 28 -9 10 -5 22 14 50 13 20 21 37 16 37 -10 0
-66 -92 -92 -155 -12 -27 -28 -63 -35 -80 -77 -178 -108 -502 -65 -698 23
-104 57 -204 77 -228 7 -8 13 -20 13 -26 0 -18 53 -90 110 -149 65 -68 151
-126 229 -154 31 -11 67 -26 81 -34 14 -7 54 -23 90 -35 36 -13 79 -29 95 -37
74 -34 286 -105 343 -114 76 -13 228 3 287 30 59 26 114 44 118 39 2 -2 0 -58
-4 -124 -14 -221 -48 -807 -65 -1120 l-17 -310 -87 -130 c-48 -71 -99 -148
-113 -170 -14 -22 -34 -51 -45 -65 -18 -24 -240 -350 -292 -429 -85 -128 -104
-156 -112 -159 -4 -2 -8 -8 -8 -13 0 -9 -60 -100 -72 -109 -4 -3 -21 -37 -38
-75 -17 -39 -36 -79 -42 -90 -7 -11 -14 -68 -16 -126 l-4 -106 -102 -6 c-121
-6 -162 -19 -242 -78 -66 -47 -121 -114 -161 -194 -14 -27 -29 -52 -32 -55 -4
-3 -17 -21 -28 -40 -64 -104 -182 -160 -387 -182 -112 -12 -367 0 -474 22 -26
6 -123 24 -217 40 -146 27 -216 43 -285 67 -13 5 -13 6 0 10 8 3 66 30 128 59
134 64 215 114 260 160 l32 34 1 153 c0 83 2 162 5 174 5 27 -42 84 -96 118
-52 32 -183 80 -290 105 -52 12 -122 28 -155 37 -71 17 -393 69 -765 123 -146
21 -337 50 -425 65 -277 45 -253 46 -337 -17 -40 -30 -136 -110 -213 -177
l-140 -123 -6 59 c-4 32 -10 294 -14 583 -4 289 -10 653 -15 810 -8 261 -10
292 -33 369 -26 85 -56 162 -68 171 -3 3 -17 25 -29 50 -40 78 -107 174 -153
217 -23 22 -79 60 -122 85 -62 35 -603 308 -610 308 -1 0 -2 -7 -2 -15 0 -9
10 -15 24 -15 16 0 22 -4 17 -12 -4 -6 -3 -8 4 -4 11 7 166 -67 177 -84 4 -6
10 -8 14 -5 5 2 17 -2 27 -10 17 -13 15 -14 -31 -15 -177 -2 -426 -86 -629
-212 -78 -49 -208 -146 -271 -203 -27 -24 -94 -77 -164 -130 -14 -10 -33 -26
-41 -35 -8 -9 -31 -27 -50 -40 -19 -13 -41 -30 -49 -38 -16 -16 -141 -118
-180 -147 -14 -11 -62 -50 -105 -87 -43 -37 -85 -68 -92 -68 -8 0 -14 -4 -14
-9 0 -6 -35 -38 -77 -73 -43 -34 -79 -66 -81 -70 -2 -5 -8 -8 -13 -8 -6 0 -27
-15 -47 -34 -20 -18 -62 -53 -92 -78 -30 -24 -138 -111 -239 -192 -101 -81
-189 -152 -195 -157 -6 -5 -22 -19 -36 -30 -14 -12 -41 -33 -60 -48 -19 -14
-52 -41 -72 -60 -21 -19 -48 -41 -60 -49 -13 -9 -50 -39 -83 -66 -33 -28 -65
-55 -71 -61 -7 -5 -38 -30 -69 -55 -31 -25 -76 -61 -100 -80 -23 -19 -61 -51
-85 -69 -23 -19 -48 -41 -56 -48 -7 -7 -16 -13 -21 -13 -4 0 -19 -14 -33 -31
-14 -18 -33 -39 -44 -48 -71 -62 -226 -313 -226 -366 0 -13 -5 -25 -11 -27 -5
-2 -13 -22 -16 -46 -3 -23 -9 -42 -13 -42 -5 0 -6 10 -2 22 4 18 2 20 -15 16
-15 -4 -24 1 -32 18 -6 14 -19 24 -32 24 -21 0 -79 50 -79 69 0 6 9 11 20 11
11 0 20 7 20 15 0 11 -11 15 -42 14 -24 0 -37 -3 -30 -6 6 -2 12 -9 12 -14 0
-16 -25 -9 -44 12 -10 12 -25 19 -36 16 -13 -3 -17 0 -13 9 6 17 50 18 56 2 2
-7 8 -10 12 -6 13 13 -4 38 -25 38 -22 0 -42 15 -53 40 -4 8 -5 -2 -3 -23 l5
-37 -34 35 c-29 32 -32 40 -25 68 5 18 11 46 13 62 3 17 10 44 16 60 10 28 10
29 -4 11 -8 -11 -15 -26 -15 -33 0 -23 -1 -28 -11 -39 -5 -6 -6 -20 -2 -29 4
-12 3 -16 -4 -12 -31 19 -22 -144 42 -803 8 -85 24 -265 35 -400 11 -135 25
-279 30 -320 6 -41 24 -237 40 -435 16 -198 34 -396 40 -440 5 -44 17 -161 25
-260 8 -99 20 -236 26 -305 6 -69 15 -165 20 -215 16 -165 38 -398 58 -645 12
-135 25 -281 31 -325 10 -77 20 -191 40 -450 20 -253 31 -372 40 -440 6 -38
24 -236 40 -440 51 -635 53 -640 278 -889 149 -166 164 -187 146 -204 -62 -57
6 -193 120 -243 166 -72 368 -61 581 32 22 9 78 27 125 39 47 12 94 26 105 31
11 5 48 18 82 29 121 39 243 105 243 131 0 6 14 30 30 54 17 24 30 51 30 59 0
9 5 16 10 16 16 0 12 57 -5 64 -8 3 -14 9 -13 13 2 4 -1 8 -5 8 -5 0 -13 8
-18 18 -6 9 -14 15 -20 12 -11 -8 -12 0 0 23 19 35 50 139 62 206 16 95 10
237 -40 946 -5 74 -15 225 -21 335 -14 263 -28 500 -40 660 -5 72 -23 357 -40
635 -28 479 -34 575 -62 972 -6 92 -9 171 -5 174 4 4 30 0 59 -9 29 -9 107
-32 173 -52 66 -19 127 -39 135 -44 8 -4 65 -22 125 -40 61 -18 119 -37 130
-42 31 -15 246 -77 400 -117 77 -19 149 -39 160 -43 35 -13 185 -38 320 -54
233 -27 416 -16 506 31 92 47 209 155 291 266 157 214 240 266 492 308 148 25
225 25 428 0 218 -27 300 -43 513 -95 223 -56 342 -97 323 -112 -7 -6 -60 -37
-118 -68 -202 -110 -243 -136 -340 -213 -102 -80 -100 -75 -100 -318 0 -237
-5 -220 80 -287 70 -55 158 -101 261 -137 52 -18 103 -36 114 -41 85 -36 538
-124 1030 -199 284 -44 671 -111 777 -135 44 -10 75 -12 90 -6 24 9 145 135
238 249 29 34 56 60 61 57 5 -4 6 0 4 7 -3 8 23 52 57 98 35 47 80 110 101
140 89 128 114 159 238 286 104 105 202 164 340 204 116 33 192 38 293 19 100
-19 306 -69 324 -79 30 -15 574 -189 677 -216 164 -43 214 -52 336 -65 169
-17 285 -2 422 56 11 4 17 3 17 -5 0 -14 78 -86 124 -114 17 -10 33 -20 35
-22 5 -4 -45 -45 -73 -59 -11 -6 -27 -23 -36 -37 -14 -25 -13 -30 3 -55 10
-16 21 -36 24 -45 8 -26 139 -85 223 -101 41 -7 105 -15 142 -16 71 -2 212 21
263 44 17 7 62 24 100 38 114 41 159 63 182 88 104 116 174 208 209 275 50 95
61 120 87 194 37 109 41 131 83 525 9 83 22 202 30 265 7 63 18 167 24 230 7
63 18 169 26 235 7 66 32 284 54 485 22 201 49 444 60 540 31 277 58 518 99
905 22 198 42 371 45 385 3 14 15 117 26 230 11 113 27 261 35 330 8 69 32
289 54 490 23 201 46 399 51 440 18 128 14 199 -14 280 -41 115 -111 202 -202
250 -27 14 -72 40 -101 58 -29 17 -54 32 -56 32 -3 0 -66 36 -142 80 -76 44
-139 80 -141 80 -3 0 -22 11 -44 25 -22 14 -64 38 -92 54 -106 58 -295 165
-355 203 -34 21 -66 38 -71 38 -5 0 -27 12 -48 26 -21 15 -61 39 -89 54 -93
51 -180 100 -195 110 -111 71 -329 158 -371 147 -10 -3 -17 -2 -14 3 3 4 -2
11 -11 14 -23 9 -31 7 -15 -3 9 -6 -10 -9 -55 -10 -89 -1 -186 -22 -262 -56
-56 -25 -65 -26 -94 -14 -17 7 -46 25 -62 40 -17 14 -42 30 -56 33 -14 4 -38
14 -55 21 -16 7 -56 16 -87 20 -44 6 -58 11 -59 24 0 11 -2 12 -6 3 -4 -10 -8
-10 -19 -1 -8 6 -23 9 -35 6 -15 -4 -19 -2 -15 9 3 8 1 14 -5 14 -6 0 -3 8 8
18 10 9 13 13 6 9 -22 -15 -30 1 -36 80 -13 158 -76 342 -156 458 -15 22 -35
39 -44 39 -8 -1 -14 4 -11 10 5 15 -3 24 -61 72 -64 51 -110 78 -160 94 -22 7
-46 17 -53 23 -16 13 -203 18 -257 8z m-1187 -436 c-3 -3 -9 2 -12 12 -6 14
-5 15 5 6 7 -7 10 -15 7 -18z m-8 -99 c0 -2 -11 -6 -25 -8 -13 -3 -22 -1 -19
3 5 9 44 13 44 5z m340 -146 c0 -5 -2 -10 -4 -10 -3 0 -8 5 -11 10 -3 6 -1 10
4 10 6 0 11 -4 11 -10z m2328 -2381 c125 -61 282 -138 349 -170 67 -32 124
-63 127 -68 5 -8 -6 -149 -31 -391 -2 -25 -20 -229 -39 -455 -20 -225 -53
-608 -74 -850 -22 -242 -58 -645 -80 -895 -42 -480 -60 -663 -65 -668 -2 -2
-50 6 -107 17 -147 30 -254 46 -588 90 -162 22 -304 42 -315 45 -11 3 -60 13
-110 22 -49 9 -94 20 -98 24 -9 8 88 97 213 193 47 37 92 72 100 80 8 7 31 24
50 37 19 13 42 30 50 37 8 7 53 44 100 82 47 37 107 90 133 117 l48 48 9 115
c6 64 12 139 15 167 6 51 6 52 -30 73 -39 23 -68 31 -210 61 -110 23 -209 46
-425 100 -91 23 -175 44 -187 47 -13 3 -23 7 -23 9 0 2 21 30 47 62 26 31 70
93 100 137 29 44 109 163 178 265 236 347 360 532 427 634 36 55 73 109 81
118 32 35 39 64 48 197 5 75 16 222 24 326 8 105 21 261 27 348 6 86 15 157
20 157 5 0 111 -50 236 -111z m-7498 -1794 c0 -41 -4 -75 -8 -75 -10 0 -132
41 -132 44 0 7 123 106 131 106 5 0 9 -34 9 -75z m4765 -364 c-8 -17 -21 -33
-27 -37 -8 -5 -7 1 3 16 8 14 19 31 23 38 15 25 16 11 1 -17z m-5930 -581 c64
-14 584 -88 635 -90 11 -1 10 -4 -5 -15 -11 -8 -25 -19 -31 -24 -6 -5 -89 -50
-185 -99 -201 -103 -421 -218 -496 -258 -29 -15 -55 -26 -57 -23 -2 2 -9 81
-15 174 -7 94 -14 190 -17 215 -4 44 -3 46 48 88 56 45 61 46 123 32z"/>
<path d="M15456 20993 c-6 -14 -5 -15 5 -6 7 7 10 15 7 18 -3 3 -9 -2 -12 -12z"/>
<path d="M15394 20928 l-19 -23 23 19 c21 18 27 26 19 26 -2 0 -12 -10 -23
-22z"/>
<path d="M15336 20852 l-19 -27 24 22 c12 12 21 24 18 27 -2 2 -13 -8 -23 -22z"/>
<path d="M15295 20794 c-9 -15 -12 -23 -6 -20 11 7 35 46 28 46 -3 0 -12 -12
-22 -26z"/>
<path d="M12515 20461 c-81 -14 -204 -59 -295 -109 -47 -26 -89 -49 -93 -51
-5 -2 -22 -16 -38 -32 -16 -16 -33 -29 -37 -29 -11 0 -131 -119 -162 -160 -14
-18 -31 -39 -37 -46 -7 -7 -13 -17 -13 -23 0 -6 -4 -11 -8 -11 -4 0 -16 -13
-25 -30 -10 -16 -23 -35 -30 -43 -25 -27 -110 -196 -121 -239 -3 -15 -13 -34
-21 -42 -9 -8 -15 -18 -15 -21 1 -3 -1 -11 -3 -18 -3 -6 -6 0 -6 15 -1 22 -5
25 -22 21 -14 -4 -25 0 -30 10 -11 19 -95 67 -119 67 -9 0 -29 9 -43 20 -14
11 -39 20 -57 20 -17 0 -39 7 -47 16 -11 10 -26 14 -44 10 -40 -8 -62 17 -53
58 14 65 -6 16 -36 -89 -28 -96 -32 -130 -37 -272 -7 -191 4 -274 53 -417 65
-188 182 -344 334 -443 70 -46 311 -169 515 -263 242 -113 502 -105 743 22 72
38 168 103 208 142 88 84 144 142 144 147 0 3 11 18 24 33 56 59 157 239 204
361 23 58 61 204 73 271 14 89 14 299 -1 389 -13 80 -73 266 -100 310 -10 17
-25 43 -33 59 -45 86 -222 258 -297 288 -8 4 -53 23 -100 43 -79 33 -94 36
-205 40 -66 2 -142 0 -170 -4z m-1338 -728 c-3 -10 -5 -4 -5 12 0 17 2 24 5
18 2 -7 2 -21 0 -30z"/>
<path d="M11539 20393 c-13 -16 -12 -17 4 -4 9 7 17 15 17 17 0 8 -8 3 -21
-13z"/>
<path d="M17368 20343 c12 -2 32 -2 45 0 12 2 2 4 -23 4 -25 0 -35 -2 -22 -4z"/>
<path d="M11454 20308 l-29 -33 33 29 c17 17 32 31 32 33 0 8 -8 1 -36 -29z"/>
<path d="M11290 20085 c-7 -9 -11 -17 -9 -20 3 -2 10 5 17 15 14 24 10 26 -8
5z"/>
<path d="M11244 19988 c-16 -33 -29 -64 -29 -69 0 -4 -3 -11 -7 -15 -5 -4 -8
-12 -8 -18 0 -14 21 7 24 25 1 8 15 40 30 72 15 33 26 61 24 63 -3 2 -18 -24
-34 -58z"/>
<path d="M11246 19853 c-6 -14 -5 -15 5 -6 7 7 10 15 7 18 -3 3 -9 -2 -12 -12z"/>
<path d="M10393 19093 c9 -2 23 -2 30 0 6 3 -1 5 -18 5 -16 0 -22 -2 -12 -5z"/>
<path d="M10490 19080 c8 -5 24 -10 34 -10 26 0 18 6 -19 14 -22 5 -26 4 -15
-4z"/>
<path d="M10549 19059 c-10 -6 -9 -8 6 -7 11 0 34 -3 50 -7 38 -10 30 -1 -11
12 -18 6 -37 7 -45 2z"/>
<path d="M10647 18989 c7 -7 15 -10 18 -7 3 3 -2 9 -12 12 -14 6 -15 5 -6 -5z"/>
<path d="M9224 18438 l-19 -23 23 19 c12 11 22 21 22 23 0 8 -8 2 -26 -19z"/>
<path d="M8909 18183 c-13 -16 -12 -17 4 -4 16 13 21 21 13 21 -2 0 -10 -8
-17 -17z"/>
<path d="M8864 18148 l-19 -23 23 19 c12 11 22 21 22 23 0 8 -8 2 -26 -19z"/>
<path d="M8709 18023 c-13 -16 -12 -17 4 -4 16 13 21 21 13 21 -2 0 -10 -8
-17 -17z"/>
<path d="M8349 17733 c-13 -16 -12 -17 4 -4 16 13 21 21 13 21 -2 0 -10 -8
-17 -17z"/>
<path d="M8234 17638 l-19 -23 23 19 c12 11 22 21 22 23 0 8 -8 2 -26 -19z"/>
<path d="M7869 17343 c-13 -16 -12 -17 4 -4 16 13 21 21 13 21 -2 0 -10 -8
-17 -17z"/>
<path d="M7800 17290 c-8 -5 -10 -10 -5 -10 6 0 17 5 25 10 8 5 11 10 5 10 -5
0 -17 -5 -25 -10z"/>
<path d="M7754 17248 l-19 -23 23 19 c21 18 27 26 19 26 -2 0 -12 -10 -23 -22z"/>
<path d="M7549 17083 c-13 -16 -12 -17 4 -4 9 7 17 15 17 17 0 8 -8 3 -21 -13z"/>
<path d="M7459 17013 c-13 -16 -12 -17 4 -4 16 13 21 21 13 21 -2 0 -10 -8
-17 -17z"/>
<path d="M7384 16948 l-19 -23 23 19 c21 18 27 26 19 26 -2 0 -12 -10 -23 -22z"/>
<path d="M7334 16888 l-19 -23 23 19 c21 18 27 26 19 26 -2 0 -12 -10 -23 -22z"/>
<path d="M7300 16849 c0 -5 5 -7 10 -4 6 3 10 8 10 11 0 2 -4 4 -10 4 -5 0
-10 -5 -10 -11z"/>
<path d="M7230 16750 c-6 -11 -8 -20 -6 -20 3 0 10 9 16 20 6 11 8 20 6 20 -3
0 -10 -9 -16 -20z"/>
<path d="M7166 16517 c3 -10 9 -15 12 -12 3 3 0 11 -7 18 -10 9 -11 8 -5 -6z"/>
<path d="M7414 16255 c8 -8 17 -15 20 -15 3 0 6 7 6 15 0 9 -9 15 -21 15 -18
0 -19 -2 -5 -15z"/>
<path d="M25255 15402 c30 -45 34 -86 15 -137 -13 -34 -6 -43 20 -27 11 7 26
12 33 12 7 0 23 7 35 16 21 15 21 16 5 47 -9 18 -25 39 -37 47 -12 8 -39 30
-60 50 l-39 35 28 -43z"/>
<path d="M24602 15016 l-24 -13 26 -16 c33 -22 36 -22 36 7 0 32 -10 37 -38
22z"/>
<path d="M20145 14239 c3 -9 2 -34 -4 -57 -5 -23 -5 -42 -1 -42 14 0 75 29 63
30 -7 0 -13 6 -13 13 -1 6 -12 26 -26 42 -13 17 -22 23 -19 14z"/>
<path d="M17297 13044 c-3 -4 -45 -6 -92 -5 -49 1 -85 -2 -85 -8 0 -5 -22 -12
-49 -16 -27 -4 -52 -12 -54 -19 -3 -8 -28 -15 -56 -18 -28 -3 -59 -12 -69 -22
-10 -9 -24 -16 -32 -16 -16 0 -104 -42 -108 -52 -2 -5 -10 -8 -17 -8 -8 0 -38
-14 -67 -30 -29 -17 -66 -38 -83 -46 -16 -8 -48 -26 -70 -40 -22 -13 -52 -29
-67 -35 -16 -6 -28 -15 -28 -20 0 -11 6 -11 28 0 9 5 31 14 47 21 17 7 39 17
50 23 88 47 241 115 285 127 25 7 53 16 62 21 10 5 26 9 36 9 10 0 24 6 30 13
18 17 249 16 327 -2 262 -61 415 -126 571 -243 35 -27 71 -48 81 -48 23 0 123
47 123 57 0 4 -18 17 -40 27 -21 10 -49 29 -61 42 -13 13 -31 24 -41 24 -10 0
-17 5 -15 12 1 6 -7 14 -18 16 -11 2 -33 14 -50 26 -16 12 -57 35 -90 51 -33
16 -62 31 -65 35 -3 3 -22 16 -42 27 -26 15 -38 18 -42 10 -3 -9 -5 -9 -5 1
-1 6 -9 12 -18 12 -9 0 -26 8 -37 18 -33 30 -221 73 -239 56z"/>
<path d="M15450 12916 c0 -2 7 -7 16 -10 8 -3 12 -2 9 4 -6 10 -25 14 -25 6z"/>
<path d="M15810 12716 c0 -2 9 -6 20 -9 11 -3 18 -1 14 4 -5 9 -34 13 -34 5z"/>
<path d="M16388 12693 c7 -3 16 -2 19 1 4 3 -2 6 -13 5 -11 0 -14 -3 -6 -6z"/>
<path d="M16345 12680 c-3 -5 1 -10 9 -10 9 0 16 5 16 10 0 6 -4 10 -9 10 -6
0 -13 -4 -16 -10z"/>
<path d="M16143 12633 c9 -2 25 -2 35 0 9 3 1 5 -18 5 -19 0 -27 -2 -17 -5z"/>
<path d="M17050 11917 c0 -15 34 -60 75 -100 44 -42 142 -117 153 -117 6 0 12
-4 14 -8 2 -4 25 -21 53 -37 95 -55 522 -260 605 -290 19 -7 133 -63 252 -124
203 -104 276 -135 218 -93 -30 21 -145 83 -220 117 -30 14 -91 43 -135 64 -44
21 -96 45 -115 54 -19 9 -42 21 -50 26 -8 5 -114 57 -235 116 -121 58 -222
110 -225 114 -3 5 -20 16 -38 25 -40 21 -183 119 -217 149 -14 12 -46 43 -72
70 -48 48 -63 57 -63 34z"/>
<path d="M20331 11696 c8 -8 79 -35 79 -30 0 3 -16 12 -35 20 -33 14 -53 18
-44 10z"/>
<path d="M20430 11656 c0 -2 11 -11 25 -20 14 -9 25 -13 25 -8 0 5 -11 14 -25
20 -14 6 -25 10 -25 8z"/>
<path d="M11000 10903 c-62 -27 -243 -83 -315 -98 -38 -8 -124 -19 -190 -25
-66 -6 -132 -17 -147 -25 -18 -9 -28 -9 -31 -2 -2 7 -17 7 -49 -1 -26 -7 -61
-12 -77 -12 -17 0 -31 -4 -31 -10 0 -5 -18 -10 -40 -10 -22 0 -40 -4 -40 -10
0 -5 -16 -10 -36 -10 -20 0 -50 -6 -67 -14 -18 -8 -54 -22 -82 -31 -66 -21
-145 -58 -145 -68 0 -29 79 -134 134 -178 25 -20 28 -20 45 -5 10 9 23 16 29
16 6 0 26 14 44 30 18 17 42 33 54 36 11 3 28 16 38 30 11 13 25 24 32 24 8 0
14 5 14 10 0 6 9 10 20 10 11 0 20 5 20 10 0 6 6 10 13 10 7 0 23 9 35 20 12
11 28 20 35 20 8 0 20 7 27 15 7 9 19 14 26 11 7 -3 15 2 18 10 3 8 19 14 36
14 17 0 29 4 26 8 -9 15 161 53 246 54 26 0 35 4 31 13 -3 9 10 18 39 25 60
17 131 38 153 46 14 6 16 4 10 -6 -5 -8 8 -4 28 9 20 12 37 19 37 16 0 -4 17
5 38 21 73 56 81 73 22 47z"/>
<path d="M4354 10249 c4 -19 11 -59 15 -89 5 -34 19 -74 39 -105 17 -27 51
-90 76 -140 54 -108 161 -287 207 -347 120 -155 249 -268 346 -304 26 -9 53
-22 60 -27 7 -5 50 -11 95 -13 l83 -5 -70 29 c-99 40 -191 102 -280 189 -137
132 -254 303 -375 546 -92 186 -143 267 -181 288 -21 11 -22 10 -15 -22z"/>
<path d="M6595 9720 c-3 -5 -2 -10 4 -10 5 0 13 5 16 10 3 6 2 10 -4 10 -5 0
-13 -4 -16 -10z"/>
<path d="M6490 9701 c-8 -5 -44 -17 -80 -26 -36 -9 -69 -20 -75 -24 -5 -4 -37
-17 -70 -30 -80 -32 -185 -79 -185 -85 0 -2 78 27 173 65 94 38 201 77 237 88
37 11 54 19 40 20 -14 0 -32 -4 -40 -8z"/>
<path d="M7105 9670 c125 -63 155 -83 236 -162 138 -134 178 -202 186 -318 4
-49 1 -91 -7 -116 -17 -52 -73 -120 -116 -140 -19 -9 -32 -19 -29 -22 6 -6
-123 -71 -145 -72 -11 -1 -11 -3 -2 -7 18 -7 195 63 274 109 87 50 148 132
148 198 0 26 -34 119 -61 170 -42 78 -197 239 -262 271 -23 12 -50 28 -60 37
-9 8 -20 12 -24 9 -3 -4 -13 -1 -22 7 -17 15 -165 76 -184 76 -7 0 24 -18 68
-40z"/>
<path d="M5780 9400 c-19 -11 -30 -19 -25 -19 6 0 26 8 45 19 19 11 31 19 25
19 -5 0 -26 -8 -45 -19z"/>
<path d="M6110 8520 c-9 -6 -10 -10 -3 -10 6 0 15 5 18 10 8 12 4 12 -15 0z"/>
<path d="M6030 8492 c-25 -8 -48 -19 -51 -25 -4 -5 -11 -7 -17 -3 -6 3 -16 0
-24 -6 -7 -7 -34 -24 -60 -37 -26 -13 -59 -37 -75 -53 -25 -27 -28 -36 -28
-101 0 -65 4 -79 39 -142 21 -38 50 -85 65 -104 14 -18 37 -50 50 -70 13 -20
177 -189 365 -376 360 -359 435 -437 530 -554 l60 -73 13 -125 c7 -69 18 -140
24 -158 12 -32 12 -32 68 -28 31 3 62 5 69 5 15 2 15 4 1 30 -6 11 -13 35 -15
52 -15 116 -34 172 -90 267 -25 43 -227 240 -293 285 -13 9 -37 29 -55 45 -17
15 -67 58 -111 96 -248 211 -457 428 -507 526 -11 23 -24 44 -28 47 -16 10
-41 118 -46 200 -10 140 14 189 140 289 43 34 41 35 -24 13z"/>
</g>
</svg>
